<?xml version="1.0" encoding="utf-8"?>
<!-- Generator: Adobe Illustrator 24.2.3, SVG Export Plug-In . SVG Version: 6.00 Build 0)  -->
<svg version="1.1" id="图层_1" xmlns="http://www.w3.org/2000/svg" xmlns:xlink="http://www.w3.org/1999/xlink" x="0px" y="0px"
	 viewBox="0 0 16 16" style="enable-background:new 0 0 16 16;" xml:space="preserve">
<style type="text/css">
	.st0{fill:#fff;}
</style>
<g id="FD-WebDesign">
	<g id="Fish-Design-1.2" transform="translate(-1104.000000, -428.000000)">
		<g id="编组" transform="translate(785.000000, 274.000000)">
			<g id="Group-17备份-2" transform="translate(177.000000, 142.000000)">
				<g id="fd-web-2.3-qr" transform="translate(142.000000, 12.000000)">
					<path id="形状" class="st0" d="M0,15.3C0,15.7,0.3,16,0.7,16h5.1v-5.8H0V15.3L0,15.3z M2.2,12.4h1.5v1.5H2.2V12.4z M7.3,13.1
						h1.5V16H7.3V13.1z M0,7.3h2.9v1.5H0V7.3z M7.3,7.3H4.4v1.5h2.9v2.9h1.5V4.4H7.3V7.3z M10.2,10.2h2.9v2.9h-2.9V10.2z M5.8,0H0.7
						C0.3,0,0,0.3,0,0.7v5.1h5.8V0z M3.7,3.6H2.2V2.2h1.5V3.6z M15.3,0h-5.1v5.8H16V0.7C16,0.3,15.7,0,15.3,0z M13.8,3.6h-1.5V2.2
						h1.5V3.6z M7.3,0h1.5v2.9H7.3V0z M11.6,7.3H16v1.5h-4.4V7.3z"/>
					<path id="路径" class="st0" d="M14.5,14.5h-4.4V16h5.1c0.4,0,0.7-0.3,0.7-0.7v-5.1h-1.5V14.5L14.5,14.5z"/>
				</g>
			</g>
		</g>
	</g>
</g>
</svg>
