<?xml version="1.0" standalone="no"?><!DOCTYPE svg PUBLIC "-//W3C//DTD SVG 1.1//EN" "http://www.w3.org/Graphics/SVG/1.1/DTD/svg11.dtd"><svg t="1530085117073" class="icon" style="" viewBox="0 0 1031 1024" version="1.1" xmlns="http://www.w3.org/2000/svg" p-id="1442" xmlns:xlink="http://www.w3.org/1999/xlink" width="32.21875" height="32"><defs><style type="text/css"></style></defs><path d="M675.45613 225.134752c-123.460993-123.460993-326.808511-123.460993-450.269504 0-123.460993 123.460993-123.460993 326.808511 0 450.269503 123.460993 123.460993 326.808511 123.460993 450.269504 0s123.460993-326.808511 0-450.269503m326.80851 777.078014c-21.787234 21.787234-65.361702 21.787234-87.148936 0l-203.347518-203.347518c-174.297872 130.723404-421.219858 116.198582-580.992907-43.574468-174.297872-174.297872-174.297872-457.531915 0-624.567376 174.297872-174.297872 457.531915-174.297872 624.567376 0 159.77305 159.77305 167.035461 406.695035 43.574468 580.992908l203.347517 203.347518c29.049645 29.049645 29.049645 65.361702 0 87.148936" p-id="1443" fill="#4d70ff"></path></svg>