<?xml version="1.0" standalone="no"?><!DOCTYPE svg PUBLIC "-//W3C//DTD SVG 1.1//EN" "http://www.w3.org/Graphics/SVG/1.1/DTD/svg11.dtd"><svg t="1538295166991" class="icon" style="" viewBox="0 0 1024 1024" version="1.1" xmlns="http://www.w3.org/2000/svg" p-id="5890" xmlns:xlink="http://www.w3.org/1999/xlink" width="200" height="200"><defs><style type="text/css"></style></defs><path d="M274.285714 512c29.257143 0 54.857143 25.6 54.857143 54.857143v329.142857c0 29.257143-25.6 54.857143-54.857143 54.857143h-109.714285c-29.257143 0-54.857143-25.6-54.857143-54.857143v-329.142857c0-29.257143 25.6-54.857143 54.857143-54.857143h109.714285z m585.142857-256c29.257143 0 54.857143 25.6 54.857143 54.857143v585.142857c0 29.257143-25.6 54.857143-54.857143 54.857143h-109.714285c-29.257143 0-54.857143-25.6-54.857143-54.857143v-585.142857c0-29.257143 25.6-54.857143 54.857143-54.857143h109.714285z m-292.571428-182.857143c29.257143 0 54.857143 25.6 54.857143 54.857143v768c0 29.257143-25.6 54.857143-54.857143 54.857143h-109.714286c-29.257143 0-54.857143-25.6-54.857143-54.857143v-768c0-29.257143 25.6-54.857143 54.857143-54.857143h109.714286z" fill="#666666" p-id="5891"></path></svg>