<?xml version="1.0" standalone="no"?><!DOCTYPE svg PUBLIC "-//W3C//DTD SVG 1.1//EN" "http://www.w3.org/Graphics/SVG/1.1/DTD/svg11.dtd"><svg t="1541077282821" class="icon" style="" viewBox="0 0 1024 1024" version="1.1" xmlns="http://www.w3.org/2000/svg" p-id="4345" xmlns:xlink="http://www.w3.org/1999/xlink" width="200" height="200"><defs><style type="text/css"></style></defs><path d="M943.542857 168.228571c0-29.257143-25.6-51.2-51.2-51.2-245.028571-10.971429-512-10.971429-757.028571 0-29.257143 0-51.2 25.6-51.2 51.2-7.314286 190.171429-7.314286 351.085714 0 541.257143 0 29.257143 25.6 51.2 51.2 51.2 245.028571 10.971429 512 10.971429 757.028571 0 29.257143 0 51.2-25.6 51.2-51.2 10.971429-190.171429 10.971429-351.085714 0-541.257143z m-303.542857 299.885715l-182.857143 109.714285c-21.942857 18.285714-54.857143 0-54.857143-29.257142V329.142857c0-25.6 32.914286-43.885714 54.857143-29.257143l182.857143 109.714286c25.6 14.628571 25.6 43.885714 0 58.514286zM786.285714 841.142857c29.257143 0 54.857143 25.6 54.857143 54.857143s-25.6 54.857143-54.857143 54.857143h-548.571428c-29.257143 0-54.857143-25.6-54.857143-54.857143S208.457143 841.142857 237.714286 841.142857h548.571428z" fill="#666666" p-id="4346"></path></svg>