<?xml version="1.0" standalone="no"?><!DOCTYPE svg PUBLIC "-//W3C//DTD SVG 1.1//EN" "http://www.w3.org/Graphics/SVG/1.1/DTD/svg11.dtd"><svg t="1538295171358" class="icon" style="" viewBox="0 0 1024 1024" version="1.1" xmlns="http://www.w3.org/2000/svg" p-id="5999" xmlns:xlink="http://www.w3.org/1999/xlink" width="200" height="200"><defs><style type="text/css"></style></defs><path d="M768 402.285714h-164.571429c-29.257143 0-54.857143-25.6-54.857142-54.857143V182.857143c0-21.942857 14.628571-36.571429 36.571428-36.571429s36.571429 14.628571 36.571429 36.571429v146.285714h146.285714c21.942857 0 36.571429 14.628571 36.571429 36.571429s-14.628571 36.571429-36.571429 36.571428m102.4-80.457143c0-14.628571-7.314286-29.257143-18.285714-36.571428-80.457143-76.8-149.942857-146.285714-245.028572-204.8-7.314286-3.657143-18.285714-7.314286-29.257143-7.314286H208.457143c-29.257143 0-54.857143 21.942857-54.857143 54.857143-10.971429 256-10.971429 515.657143 0 771.657143 0 29.257143 25.6 54.857143 54.857143 54.857143h607.085714c29.257143 0 54.857143-21.942857 54.857143-51.2 10.971429-197.485714 10.971429-387.657143 0-581.485715" fill="#666666" p-id="6000"></path></svg>