<?xml version="1.0" standalone="no"?><!DOCTYPE svg PUBLIC "-//W3C//DTD SVG 1.1//EN" "http://www.w3.org/Graphics/SVG/1.1/DTD/svg11.dtd"><svg t="1538295154955" class="icon" style="" viewBox="0 0 1024 1024" version="1.1" xmlns="http://www.w3.org/2000/svg" p-id="5672" xmlns:xlink="http://www.w3.org/1999/xlink" width="200" height="200"><defs><style type="text/css"></style></defs><path d="M424.228571 113.371429c25.6 3.657143 47.542857 21.942857 47.542858 47.542857 7.314286 87.771429 7.314286 171.885714 0 259.657143-3.657143 25.6-21.942857 47.542857-47.542858 47.542857-87.771429 7.314286-171.885714 7.314286-259.657142 0-25.6-3.657143-47.542857-21.942857-47.542858-47.542857C109.714286 336.457143 109.714286 248.685714 113.371429 160.914286c3.657143-25.6 21.942857-47.542857 47.542857-47.542857 87.771429-3.657143 175.542857-3.657143 263.314285 0z m175.542858 358.4c-25.6-3.657143-47.542857-21.942857-47.542858-47.542858-7.314286-87.771429-7.314286-171.885714 0-259.657142 3.657143-25.6 21.942857-47.542857 47.542858-47.542858 87.771429-7.314286 171.885714-7.314286 259.657142 0 25.6 3.657143 47.542857 21.942857 47.542858 47.542858 7.314286 87.771429 7.314286 171.885714 0 259.657142-3.657143 25.6-21.942857 47.542857-47.542858 47.542858-84.114286 3.657143-171.885714 3.657143-259.657142 0z m-175.542858 80.457142c25.6 3.657143 47.542857 21.942857 47.542858 47.542858 7.314286 87.771429 7.314286 171.885714 0 259.657142-3.657143 25.6-21.942857 47.542857-47.542858 47.542858-87.771429 7.314286-171.885714 7.314286-259.657142 0-25.6-3.657143-47.542857-21.942857-47.542858-47.542858-7.314286-87.771429-7.314286-171.885714 0-259.657142 3.657143-25.6 21.942857-47.542857 47.542858-47.542858 84.114286-3.657143 171.885714-3.657143 259.657142 0z m438.857143 0c25.6 3.657143 47.542857 21.942857 47.542857 47.542858 7.314286 87.771429 7.314286 171.885714 0 259.657142-3.657143 25.6-21.942857 47.542857-47.542857 47.542858-87.771429 7.314286-171.885714 7.314286-259.657143 0-25.6-3.657143-47.542857-21.942857-47.542857-47.542858-7.314286-87.771429-7.314286-171.885714 0-259.657142 3.657143-25.6 21.942857-47.542857 47.542857-47.542858 84.114286-3.657143 171.885714-3.657143 259.657143 0z" fill="#666666" p-id="5673"></path></svg>