<?xml version="1.0" standalone="no"?><!DOCTYPE svg PUBLIC "-//W3C//DTD SVG 1.1//EN" "http://www.w3.org/Graphics/SVG/1.1/DTD/svg11.dtd"><svg t="1538295145146" class="icon" style="" viewBox="0 0 1024 1024" version="1.1" xmlns="http://www.w3.org/2000/svg" p-id="5454" xmlns:xlink="http://www.w3.org/1999/xlink" width="200" height="200"><defs><style type="text/css"></style></defs><path d="M753.371429 841.142857H186.514286c-18.285714 0-36.571429-18.285714-36.571429-36.571428v-87.771429c0-14.628571 3.657143-25.6 14.628572-36.571429l157.257142-175.542857c25.6-29.257143 65.828571-32.914286 95.085715-10.971428l358.4 281.6c29.257143 21.942857 14.628571 65.828571-21.942857 65.828571M687.542857 318.171429c40.228571 0 69.485714 32.914286 69.485714 73.142857s-32.914286 73.142857-69.485714 73.142857c-40.228571 0-69.485714-32.914286-69.485714-73.142857s29.257143-73.142857 69.485714-73.142857m256-113.371429c0-29.257143-21.942857-51.2-51.2-51.2-248.685714-10.971429-515.657143-10.971429-764.342857 0-29.257143 0-51.2 25.6-51.2 51.2-7.314286 208.457143-7.314286 438.857143 0 647.314286 0 29.257143 21.942857 51.2 51.2 51.2 248.685714 10.971429 515.657143 10.971429 764.342857 0 29.257143 0 51.2-25.6 51.2-51.2 10.971429-208.457143 10.971429-435.2 0-647.314286" fill="#666666" p-id="5455"></path></svg>