<?xml version="1.0" standalone="no"?><!DOCTYPE svg PUBLIC "-//W3C//DTD SVG 1.1//EN" "http://www.w3.org/Graphics/SVG/1.1/DTD/svg11.dtd"><svg t="1538295141236" class="icon" style="" viewBox="0 0 1024 1024" version="1.1" xmlns="http://www.w3.org/2000/svg" p-id="5345" xmlns:xlink="http://www.w3.org/1999/xlink" width="200" height="200"><defs><style type="text/css"></style></defs><path d="M914.285714 413.257143c0 120.685714 0 215.771429-7.314285 332.8 0 29.257143-25.6 51.2-51.2 51.2-219.428571 10.971429-468.114286 10.971429-687.542858 0-29.257143 0-51.2-25.6-51.2-54.857143-7.314286-109.714286-7.314286-201.142857-7.314285-318.171429 0-14.628571 14.628571-21.942857 25.6-18.285714l340.114285 135.314286c14.628571 7.314286 29.257143 7.314286 43.885715 0l369.371428-146.285714c10.971429-3.657143 25.6 7.314286 25.6 18.285714zM135.314286 329.142857c-14.628571-7.314286-21.942857-18.285714-21.942857-36.571428 0-21.942857 3.657143-36.571429 3.657142-54.857143 3.657143-29.257143 25.6-51.2 51.2-51.2 219.428571-10.971429 468.114286-10.971429 687.542858 0 29.257143 0 51.2 21.942857 51.2 51.2 0 14.628571 0 25.6 3.657142 43.885714 0 14.628571-7.314286 29.257143-21.942857 36.571429l-369.371428 146.285714c-14.628571 7.314286-29.257143 7.314286-43.885715 0L135.314286 329.142857z" fill="#666666" p-id="5346"></path></svg>