<?xml version="1.0" standalone="no"?><!DOCTYPE svg PUBLIC "-//W3C//DTD SVG 1.1//EN" "http://www.w3.org/Graphics/SVG/1.1/DTD/svg11.dtd"><svg t="1538295107715" class="icon" style="" viewBox="0 0 1024 1024" version="1.1" xmlns="http://www.w3.org/2000/svg" p-id="4785" xmlns:xlink="http://www.w3.org/1999/xlink" width="200" height="200"><defs><style type="text/css"></style></defs><path d="M658.285714 475.428571h-292.571428c-21.942857 0-36.571429-14.628571-36.571429-36.571428s14.628571-36.571429 36.571429-36.571429h292.571428c21.942857 0 36.571429 14.628571 36.571429 36.571429s-14.628571 36.571429-36.571429 36.571428m-102.4 146.285715H365.714286c-21.942857 0-36.571429-14.628571-36.571429-36.571429s14.628571-36.571429 36.571429-36.571428h190.171428c21.942857 0 36.571429 14.628571 36.571429 36.571428s-14.628571 36.571429-36.571429 36.571429m241.371429-438.857143h-84.114286v-18.285714c0-29.257143-25.6-54.857143-54.857143-54.857143s-54.857143 25.6-54.857143 54.857143V182.857143h-182.857142v-18.285714c0-29.257143-25.6-54.857143-54.857143-54.857143s-54.857143 25.6-54.857143 54.857143V182.857143H226.742857c-29.257143 0-54.857143 21.942857-54.857143 51.2-7.314286 208.457143-7.314286 416.914286 0 625.371428 0 29.257143 25.6 51.2 54.857143 51.2h570.514286c29.257143 0 54.857143-21.942857 54.857143-51.2 7.314286-208.457143 7.314286-416.914286 0-625.371428 0-29.257143-25.6-51.2-54.857143-51.2z" fill="#666666" p-id="4786"></path></svg>