<?xml version="1.0" standalone="no"?><!DOCTYPE svg PUBLIC "-//W3C//DTD SVG 1.1//EN" "http://www.w3.org/Graphics/SVG/1.1/DTD/svg11.dtd"><svg t="1538295092878" class="icon" style="" viewBox="0 0 1024 1024" version="1.1" xmlns="http://www.w3.org/2000/svg" p-id="4552" xmlns:xlink="http://www.w3.org/1999/xlink" width="200" height="200"><defs><style type="text/css"></style></defs><path d="M870.4 555.885714c3.657143 0 7.314286 3.657143 7.314286 7.314286-7.314286 201.142857-175.542857 358.4-376.685715 351.085714-190.171429-7.314286-347.428571-164.571429-354.742857-354.742857C138.971429 358.4 299.885714 190.171429 497.371429 182.857143c3.657143 0 7.314286 3.657143 7.314285 7.314286-3.657143 98.742857-3.657143 193.828571 7.314286 292.571428l7.314286 58.514286 58.514285 7.314286c62.171429 7.314286 128 10.971429 190.171429 10.971428 32.914286-3.657143 69.485714-3.657143 102.4-3.657143z m80.457143-146.285714c3.657143 29.257143-18.285714 58.514286-47.542857 62.171429-87.771429 7.314286-175.542857 7.314286-259.657143 0-25.6-3.657143-47.542857-21.942857-51.2-51.2-7.314286-87.771429-3.657143-171.885714 0-259.657143 0-29.257143 29.257143-54.857143 62.171428-47.542857 149.942857 21.942857 270.628571 142.628571 296.228572 296.228571z" fill="#666666" p-id="4553"></path></svg>