<?xml version="1.0" standalone="no"?><!DOCTYPE svg PUBLIC "-//W3C//DTD SVG 1.1//EN" "http://www.w3.org/Graphics/SVG/1.1/DTD/svg11.dtd"><svg t="1538295077986" class="icon" style="" viewBox="0 0 1024 1024" version="1.1" xmlns="http://www.w3.org/2000/svg" p-id="4443" xmlns:xlink="http://www.w3.org/1999/xlink" width="200" height="200"><defs><style type="text/css"></style></defs><path d="M782.628571 146.285714c32.914286 0 58.514286 25.6 58.514286 54.857143S815.542857 256 782.628571 256H241.371429C208.457143 256 182.857143 230.4 182.857143 201.142857S208.457143 146.285714 241.371429 146.285714h95.085714l7.314286-25.6c7.314286-21.942857 29.257143-40.228571 51.2-40.228571 128-7.314286 102.4-7.314286 230.4 0 25.6 0 47.542857 18.285714 51.2 40.228571l7.314285 25.6h98.742857zM226.742857 387.657143C223.085714 354.742857 248.685714 329.142857 285.257143 329.142857h457.142857c32.914286 0 62.171429 25.6 58.514286 58.514286-14.628571 160.914286-32.914286 318.171429-65.828572 475.428571-3.657143 25.6-25.6 43.885714-54.857143 43.885715-113.371429 7.314286-223.085714 7.314286-336.457142 0-25.6 0-47.542857-21.942857-54.857143-43.885715-29.257143-157.257143-51.2-314.514286-62.171429-475.428571z" fill="#666666" p-id="4444"></path></svg>