<?xml version="1.0" encoding="utf-8"?>
<!-- Generator: Adobe Illustrator 22.1.0, SVG Export Plug-In . SVG Version: 6.00 Build 0)  -->
<svg version="1.1" id="图层_1" xmlns="http://www.w3.org/2000/svg" xmlns:xlink="http://www.w3.org/1999/xlink" x="0px" y="0px"
	 viewBox="0 0 87 20" style="enable-background:new 0 0 87 20;" xml:space="preserve">
<style type="text/css">
	.st0{fill:#1A1515;}
</style>
<title>fd-web-2.2-github@2x</title>
<desc>Created with Sketch.</desc>
<g>
	<path class="st0" d="M35.2,11.9h3.5v2.8c-0.4,0.3-0.9,0.5-1.4,0.6c-0.6,0.1-1.2,0.2-1.8,0.2c-1.6,0-2.8-0.5-3.5-1.4
		c-0.7-0.8-1.1-2-1.1-3.6c0-1.6,0.4-2.8,1.2-3.7c0.7-0.9,1.7-1.3,3-1.3c1,0,1.8,0.2,2.4,0.7c0.6,0.4,1,1.1,1.2,1.9h2
		c-0.2-1.4-0.8-2.5-1.7-3.2c-1-0.8-2.3-1.1-3.9-1.1c-1.9,0-3.4,0.6-4.5,2c-1.1,1.2-1.6,2.8-1.6,4.8c0,1.9,0.5,3.5,1.6,4.7
		c1.1,1.3,2.7,1.9,4.8,1.9c1.1,0,2.1-0.1,3.1-0.4c0.9-0.3,1.7-0.7,2.3-1.2v-5.4h-5.5V11.9z"/>
	<path class="st0" d="M44.2,4c-0.4,0-0.7,0.1-0.9,0.4c-0.3,0.2-0.4,0.5-0.4,0.9c0,0.4,0.1,0.7,0.4,0.9c0.3,0.2,0.6,0.4,0.9,0.4
		c0.4,0,0.7-0.1,0.9-0.4c0.3-0.3,0.4-0.6,0.4-0.9c0-0.4-0.1-0.7-0.4-0.9C44.9,4.1,44.6,4,44.2,4z"/>
	<rect x="43.2" y="7.7" class="st0" width="1.9" height="9.3"/>
	<path class="st0" d="M50.5,4.7l-1.9,0.8v2.2h-1.7v1.6h1.7v5.4c0,0.7,0.2,1.3,0.5,1.7c0.4,0.4,1,0.6,1.7,0.6h1.5v-1.6h-1.2
		c-0.2,0-0.4-0.1-0.5-0.2c-0.1-0.1-0.2-0.3-0.2-0.6V9.3h2.1V7.7h-2.1V4.7z"/>
	<polygon class="st0" points="63.1,9.6 56.3,9.6 56.3,4.1 54.4,4.1 54.4,17 56.3,17 56.3,11.2 63.1,11.2 63.1,17 65,17 65,4.1
		63.1,4.1 	"/>
	<path class="st0" d="M73.7,13.4c-0.2,0.7-0.5,1.2-0.9,1.7c-0.4,0.4-0.9,0.6-1.4,0.6c-0.7,0-1.3-0.2-1.6-0.6
		c-0.3-0.4-0.5-0.9-0.5-1.7V7.7h-1.9v5.8c0,2.5,1.1,3.8,3.4,3.8c1.2,0,2.1-0.5,2.9-1.5V17h1.9V7.7h-1.9V13.4z"/>
	<path class="st0" d="M85.7,8.9c-0.8-1-1.8-1.5-3.2-1.5c-1.2,0-2.1,0.5-2.8,1.6V3.9h-1.9V17h1.8v-1.1c0.6,0.9,1.6,1.4,2.9,1.4
		c1.4,0,2.4-0.5,3.2-1.5c0.7-0.9,1.1-2.1,1.1-3.5C86.7,10.9,86.4,9.8,85.7,8.9z M84.2,14.7c-0.5,0.7-1.1,1-2.1,1
		c-0.8,0-1.5-0.3-1.9-1c-0.4-0.6-0.6-1.3-0.6-2.3v-0.2c0-1,0.2-1.8,0.7-2.4c0.4-0.6,1-0.8,1.7-0.8c0.9,0,1.6,0.3,2.1,1
		c0.4,0.5,0.6,1.3,0.6,2.4S84.6,14.1,84.2,14.7z"/>
	<path class="st0" d="M10,0C4.5,0,0,4.6,0,10.3c0,4.5,2.9,8.4,6.8,9.7c0.5,0.1,0.7-0.2,0.7-0.5c0-0.2,0-0.9,0-1.7
		c-2.8,0.6-3.4-1.4-3.4-1.4C3.7,15.2,3,14.9,3,14.9c-0.9-0.6,0.1-0.6,0.1-0.6c1,0.1,1.5,1.1,1.5,1.1c0.9,1.6,2.3,1.1,2.9,0.9
		c0.1-0.7,0.3-1.1,0.6-1.4C6,14.5,3.6,13.6,3.6,9.7c0-1.1,0.4-2,1-2.8C4.5,6.7,4.2,5.7,4.7,4.3c0,0,0.8-0.3,2.8,1.1
		C8.3,5.1,9.2,5,10,5c0.8,0,1.7,0.1,2.5,0.3c1.9-1.3,2.7-1.1,2.7-1.1c0.5,1.4,0.2,2.5,0.1,2.7c0.6,0.7,1,1.6,1,2.8
		c0,3.9-2.3,4.8-4.6,5.1c0.4,0.3,0.7,0.9,0.7,1.9c0,1.4,0,2.5,0,2.8c0,0.3,0.2,0.6,0.7,0.5c4-1.4,6.8-5.2,6.8-9.7
		C20,4.6,15.5,0,10,0z"/>
</g>
</svg>
