<?xml version="1.0" encoding="utf-8"?>
<!-- Generator: Adobe Illustrator 22.1.0, SVG Export Plug-In . SVG Version: 6.00 Build 0)  -->
<svg version="1.1" id="图层_1" xmlns="http://www.w3.org/2000/svg" xmlns:xlink="http://www.w3.org/1999/xlink" x="0px" y="0px"
	 viewBox="0 0 16 16" style="enable-background:new 0 0 16 16;" xml:space="preserve">
<style type="text/css">
	.st0{fill:#337EFF;}
</style>
<title>fd-web-1.2-icon@2x</title>
<desc>Created with Sketch.</desc>
<path class="st0" d="M14.8,14.5L12.2,12c1-1,1.6-2.4,1.6-4c0-3.2-2.6-5.8-5.8-5.8S2.2,4.8,2.2,8s2.6,5.8,5.8,5.8
	c1.3,0,2.5-0.4,3.5-1.2l2.6,2.6c0.2,0.2,0.5,0.2,0.7,0C15,15,15,14.7,14.8,14.5z M3.2,8c0-2.7,2.2-4.8,4.8-4.8s4.8,2.2,4.8,4.8
	s-2.2,4.8-4.8,4.8S3.2,10.7,3.2,8z"/>
</svg>
