<?xml version="1.0" encoding="utf-8"?>
<!-- Generator: Adobe Illustrator 22.1.0, SVG Export Plug-In . SVG Version: 6.00 Build 0)  -->
<svg version="1.1" id="图层_1" xmlns="http://www.w3.org/2000/svg" xmlns:xlink="http://www.w3.org/1999/xlink" x="0px" y="0px"
	 viewBox="0 0 20 20" style="enable-background:new 0 0 20 20;" xml:space="preserve">
<style type="text/css">
	.st0{fill:#FFFFFF;}
</style>
<title>fd-web-5.2-logo@2x</title>
<desc>Created with Sketch.</desc>
<path class="st0" d="M10,0C4.5,0,0,4.6,0,10.3c0,4.5,2.9,8.4,6.8,9.7c0.5,0.1,0.7-0.2,0.7-0.5c0-0.2,0-0.9,0-1.7
	c-2.8,0.6-3.4-1.4-3.4-1.4C3.7,15.2,3,14.9,3,14.9c-0.9-0.6,0.1-0.6,0.1-0.6c1,0.1,1.5,1.1,1.5,1.1c0.9,1.6,2.3,1.1,2.9,0.9
	c0.1-0.7,0.3-1.1,0.6-1.4C6,14.5,3.6,13.6,3.6,9.7c0-1.1,0.4-2,1-2.8C4.5,6.7,4.2,5.7,4.7,4.3c0,0,0.8-0.3,2.8,1.1
	C8.3,5.1,9.2,5,10,5c0.8,0,1.7,0.1,2.5,0.3c1.9-1.3,2.7-1.1,2.7-1.1c0.5,1.4,0.2,2.5,0.1,2.7c0.6,0.7,1,1.6,1,2.8
	c0,3.9-2.3,4.8-4.6,5.1c0.4,0.3,0.7,0.9,0.7,1.9c0,1.4,0,2.5,0,2.8c0,0.3,0.2,0.6,0.7,0.5c4-1.4,6.8-5.2,6.8-9.7C20,4.6,15.5,0,10,0
	z"/>
</svg>
