<?xml version="1.0" standalone="no"?><!DOCTYPE svg PUBLIC "-//W3C//DTD SVG 1.1//EN" "http://www.w3.org/Graphics/SVG/1.1/DTD/svg11.dtd"><svg t="1543981551624" class="icon" style="" viewBox="0 0 1024 1024" version="1.1" xmlns="http://www.w3.org/2000/svg" p-id="13337" xmlns:xlink="http://www.w3.org/1999/xlink" width="200" height="200"><defs><style type="text/css"></style></defs><path d="M955.733333 93.866667H59.733333c-34.133333 0-59.733333 25.6-59.733333 59.733333v810.666667c0 34.133333 25.6 59.733333 59.733333 59.733333h904.533334c34.133333 0 59.733333-34.133333 59.733333-59.733333V153.6c0-34.133333-34.133333-59.733333-68.266667-59.733333z m-8.533333 853.333333c0 8.533333-8.533333 17.066667-17.066667 17.066667H85.333333c-8.533333 0-17.066667-8.533333-17.066666-17.066667V375.466667h878.933333v571.733333z m0-640H68.266667V179.2c0-8.533333 8.533333-17.066667 17.066666-17.066667h844.8c8.533333 0 17.066667 8.533333 17.066667 17.066667v128z" fill="#666666" p-id="13338"></path><path d="M759.466667 230.4h-51.2c-8.533333 0-17.066667-8.533333-17.066667-17.066667V17.066667c0-8.533333 8.533333-17.066667 17.066667-17.066667h51.2c8.533333 0 17.066667 8.533333 17.066666 17.066667v187.733333c0 17.066667-8.533333 25.6-17.066666 25.6zM827.733333 631.466667h-68.266666c-17.066667 0-25.6-8.533333-25.6-25.6v-68.266667c0-17.066667 8.533333-25.6 25.6-25.6h68.266666c17.066667 0 25.6 8.533333 25.6 25.6v68.266667c0 17.066667-8.533333 25.6-25.6 25.6zM554.666667 631.466667h-68.266667c-17.066667 0-25.6-8.533333-25.6-25.6v-68.266667c0-17.066667 8.533333-25.6 25.6-25.6h68.266667c17.066667 0 25.6 8.533333 25.6 25.6v68.266667c0 17.066667-8.533333 25.6-25.6 25.6zM281.6 631.466667h-68.266667c-17.066667 0-25.6-8.533333-25.6-25.6v-68.266667c0-17.066667 17.066667-25.6 25.6-25.6h68.266667c17.066667 0 25.6 8.533333 25.6 25.6v68.266667c0 17.066667-8.533333 25.6-25.6 25.6zM827.733333 844.8h-68.266666c-17.066667 0-25.6-8.533333-25.6-25.6v-68.266667c0-17.066667 8.533333-25.6 25.6-25.6h68.266666c17.066667 0 25.6 8.533333 25.6 25.6v68.266667c0 17.066667-8.533333 25.6-25.6 25.6zM554.666667 844.8h-68.266667c-17.066667 0-25.6-8.533333-25.6-25.6v-68.266667c0-17.066667 8.533333-25.6 25.6-25.6h68.266667c17.066667 0 25.6 8.533333 25.6 25.6v68.266667c0 17.066667-8.533333 25.6-25.6 25.6zM281.6 844.8h-68.266667c-17.066667 0-25.6-8.533333-25.6-25.6v-68.266667c0-17.066667 8.533333-25.6 25.6-25.6h68.266667c17.066667 0 25.6 8.533333 25.6 25.6v68.266667c0 17.066667-8.533333 25.6-25.6 25.6zM307.2 230.4H256c-8.533333 0-17.066667-8.533333-17.066667-17.066667V17.066667c0-8.533333 8.533333-17.066667 17.066667-17.066667h51.2c8.533333 0 17.066667 8.533333 17.066667 17.066667v187.733333c0 17.066667-8.533333 25.6-17.066667 25.6z" fill="#666666" p-id="13339"></path></svg>