<?xml version="1.0" standalone="no"?><!DOCTYPE svg PUBLIC "-//W3C//DTD SVG 1.1//EN" "http://www.w3.org/Graphics/SVG/1.1/DTD/svg11.dtd"><svg t="1543982017729" class="icon" style="" viewBox="0 0 1024 1024" version="1.1" xmlns="http://www.w3.org/2000/svg" p-id="23609" xmlns:xlink="http://www.w3.org/1999/xlink" width="200" height="200"><defs><style type="text/css"></style></defs><path d="M640 281.6h-256V204.8c0-40.96 35.84-76.8 76.8-76.8h102.4c40.96 0 76.8 35.84 76.8 76.8v76.8z m-204.8-51.2h153.6V204.8c0-15.36-10.24-25.6-25.6-25.6H460.8c-15.36 0-25.6 10.24-25.6 25.6v25.6z" fill="#666666" p-id="23610"></path><path d="M716.8 844.8H307.2c-40.96 0-76.8-35.84-76.8-76.8V230.4h563.2V768c0 40.96-35.84 76.8-76.8 76.8z m-435.2-563.2V768c0 15.36 10.24 25.6 25.6 25.6h409.6c15.36 0 25.6-10.24 25.6-25.6V281.6h-460.8z" fill="#666666" p-id="23611"></path><path d="M153.6 230.4h716.8v51.2H153.6zM486.4 358.4h51.2v358.4h-51.2zM358.4 358.4h51.2v358.4H358.4zM614.4 358.4h51.2v358.4h-51.2z" fill="#666666" p-id="23612"></path></svg>