<?xml version="1.0" standalone="no"?><!DOCTYPE svg PUBLIC "-//W3C//DTD SVG 1.1//EN" "http://www.w3.org/Graphics/SVG/1.1/DTD/svg11.dtd"><svg t="1543981487367" class="icon" style="" viewBox="0 0 1024 1024" version="1.1" xmlns="http://www.w3.org/2000/svg" p-id="13007" xmlns:xlink="http://www.w3.org/1999/xlink" width="200" height="200"><defs><style type="text/css"></style></defs><path d="M501.76 747.52c5.12 5.12 10.24 5.12 20.48 5.12s15.36 0 20.48-5.12l158.72-158.72c10.24-10.24 10.24-25.6 0-35.84s-25.6-10.24-35.84 0L542.72 665.6V153.6c0-15.36-10.24-25.6-25.6-25.6s-25.6 10.24-25.6 25.6v512l-117.76-117.76c-10.24-10.24-25.6-10.24-35.84 0s-10.24 25.6 0 35.84l163.84 163.84z" fill="#666666" p-id="13008"></path><path d="M921.6 588.8c-15.36 0-25.6 10.24-25.6 25.6v204.8c0 15.36-10.24 25.6-25.6 25.6H153.6c-15.36 0-25.6-10.24-25.6-25.6v-204.8c0-15.36-10.24-25.6-25.6-25.6s-25.6 10.24-25.6 25.6v204.8c0 40.96 35.84 76.8 76.8 76.8h716.8c40.96 0 76.8-35.84 76.8-76.8v-204.8c0-15.36-10.24-25.6-25.6-25.6z" fill="#666666" p-id="13009"></path></svg>