<?xml version="1.0" standalone="no"?><!DOCTYPE svg PUBLIC "-//W3C//DTD SVG 1.1//EN" "http://www.w3.org/Graphics/SVG/1.1/DTD/svg11.dtd"><svg t="1543991522859" class="icon" style="" viewBox="0 0 1024 1024" version="1.1" xmlns="http://www.w3.org/2000/svg" p-id="25034" xmlns:xlink="http://www.w3.org/1999/xlink" width="200" height="200"><defs><style type="text/css"></style></defs><path d="M512 460.8l143.36-143.36c15.36-15.36 35.84-15.36 51.2 0 15.36 15.36 15.36 35.84 0 51.2L563.2 512l143.36 143.36c15.36 15.36 15.36 35.84 0 51.2-15.36 15.36-35.84 15.36-51.2 0L512 563.2l-143.36 143.36c-15.36 15.36-35.84 15.36-51.2 0-15.36-15.36-15.36-35.84 0-51.2L460.8 512 317.44 368.64c-15.36-15.36-15.36-35.84 0-51.2 15.36-15.36 35.84-15.36 51.2 0L512 460.8z" fill="#666666" p-id="25035"></path></svg>