<?xml version="1.0" standalone="no"?><!DOCTYPE svg PUBLIC "-//W3C//DTD SVG 1.1//EN" "http://www.w3.org/Graphics/SVG/1.1/DTD/svg11.dtd"><svg t="1543981506683" class="icon" style="" viewBox="0 0 1024 1024" version="1.1" xmlns="http://www.w3.org/2000/svg" p-id="13117" xmlns:xlink="http://www.w3.org/1999/xlink" width="200" height="200"><defs><style type="text/css"></style></defs><path d="M870.4 384h-34.133333v-59.733333c0-42.666667-8.533333-85.333333-25.6-128-17.066667-42.666667-42.666667-76.8-68.266667-102.4S674.133333 42.666667 640 25.6C597.333333 8.533333 554.666667 0 512 0S426.666667 8.533333 392.533333 25.6c-42.666667 17.066667-76.8 42.666667-102.4 68.266667s-51.2 59.733333-68.266666 102.4c-17.066667 42.666667-25.6 85.333333-25.6 128v68.266666h-34.133334c-51.2-8.533333-93.866667 34.133333-93.866666 85.333334v452.266666c0 51.2 42.666667 93.866667 93.866666 93.866667h708.266667c51.2 0 93.866667-42.666667 93.866667-93.866667V477.866667c0-51.2-42.666667-93.866667-93.866667-93.866667zM256 324.266667c0-68.266667 25.6-136.533333 76.8-187.733334S443.733333 59.733333 512 59.733333s136.533333 25.6 187.733333 76.8 76.8 110.933333 76.8 187.733334v68.266666H256v-68.266666z m648.533333 605.866666c0 17.066667-17.066667 34.133333-34.133333 34.133334H162.133333c-17.066667 0-34.133333-17.066667-34.133333-34.133334V477.866667c0-17.066667 17.066667-34.133333 34.133333-34.133334h708.266667c17.066667 0 34.133333 17.066667 34.133333 34.133334v452.266666z" fill="#666666" p-id="13118"></path><path d="M520.533333 597.333333c-17.066667 0-25.6 17.066667-25.6 34.133334v128c0 17.066667 17.066667 34.133333 34.133334 34.133333s34.133333-17.066667 34.133333-34.133333V631.466667c-8.533333-17.066667-25.6-34.133333-42.666667-34.133334z" fill="#666666" p-id="13119"></path></svg>