<?xml version="1.0" standalone="no"?><!DOCTYPE svg PUBLIC "-//W3C//DTD SVG 1.1//EN" "http://www.w3.org/Graphics/SVG/1.1/DTD/svg11.dtd"><svg t="1538295119510" class="icon" style="" viewBox="0 0 1024 1024" version="1.1" xmlns="http://www.w3.org/2000/svg" p-id="4894" xmlns:xlink="http://www.w3.org/1999/xlink" width="200" height="200"><defs><style type="text/css"></style></defs><path d="M292.571429 486.4c69.485714 95.085714 149.942857 175.542857 245.028571 245.028571 14.628571 10.971429 36.571429 7.314286 47.542857-3.657142l84.114286-84.114286c14.628571-14.628571 40.228571-21.942857 58.514286-10.971429L877.714286 694.857143c36.571429 14.628571 47.542857 62.171429 18.285714 91.428571l-29.257143 29.257143c-128 128-336.457143 131.657143-468.114286 7.314286-69.485714-65.828571-135.314286-131.657143-197.485714-197.485714-124.342857-131.657143-120.685714-340.114286 7.314286-468.114286l29.257143-29.257143c29.257143-29.257143 76.8-21.942857 91.428571 18.285714l58.514286 149.942857c7.314286 21.942857 3.657143 43.885714-10.971429 58.514286L296.228571 438.857143c-14.628571 14.628571-14.628571 32.914286-3.657142 47.542857" fill="#666666" p-id="4895"></path></svg>