<?xml version="1.0" standalone="no"?><!DOCTYPE svg PUBLIC "-//W3C//DTD SVG 1.1//EN" "http://www.w3.org/Graphics/SVG/1.1/DTD/svg11.dtd"><svg t="1543991321256" class="icon" style="" viewBox="0 0 1024 1024" version="1.1" xmlns="http://www.w3.org/2000/svg" p-id="24156" xmlns:xlink="http://www.w3.org/1999/xlink" width="200" height="200"><defs><style type="text/css"></style></defs><path d="M844.8 1024h-665.6C81.92 1024 0 942.08 0 844.8v-665.6C0 81.92 81.92 0 179.2 0h665.6C942.08 0 1024 81.92 1024 179.2v665.6c0 97.28-81.92 179.2-179.2 179.2zM179.2 51.2C107.52 51.2 51.2 107.52 51.2 179.2v665.6C51.2 916.48 107.52 972.8 179.2 972.8h665.6c71.68 0 128-56.32 128-128v-665.6C972.8 107.52 916.48 51.2 844.8 51.2h-665.6z" fill="#666666" p-id="24157"></path><path d="M322.56 716.8H266.24V378.88c-20.48 20.48-40.96 35.84-71.68 46.08v-51.2c15.36-5.12 30.72-15.36 46.08-30.72 15.36-15.36 30.72-30.72 35.84-46.08h46.08V716.8zM788.48 716.8h-56.32V378.88c-20.48 20.48-46.08 30.72-71.68 40.96v-51.2c15.36-5.12 30.72-15.36 46.08-25.6 15.36-15.36 30.72-30.72 35.84-46.08h46.08V716.8zM517.12 450.56c15.36 0 30.72-15.36 30.72-30.72s-15.36-30.72-30.72-30.72-35.84 10.24-35.84 25.6 15.36 35.84 35.84 35.84zM517.12 640c15.36 0 30.72-15.36 30.72-30.72s-15.36-30.72-30.72-30.72-30.72 15.36-30.72 30.72 10.24 30.72 30.72 30.72z" fill="#666666" p-id="24158"></path></svg>