<?xml version="1.0" standalone="no"?><!DOCTYPE svg PUBLIC "-//W3C//DTD SVG 1.1//EN" "http://www.w3.org/Graphics/SVG/1.1/DTD/svg11.dtd"><svg t="1543991357071" class="icon" style="" viewBox="0 0 1024 1024" version="1.1" xmlns="http://www.w3.org/2000/svg" p-id="24487" xmlns:xlink="http://www.w3.org/1999/xlink" width="200" height="200"><defs><style type="text/css"></style></defs><path d="M512 988.16c-261.12 0-471.04-209.92-471.04-471.04S250.88 40.96 512 40.96c158.72 0 302.08 76.8 389.12 204.8 10.24 10.24 5.12 25.6-5.12 35.84-10.24 10.24-25.6 5.12-35.84-5.12-76.8-117.76-209.92-184.32-348.16-184.32-230.4 0-419.84 189.44-419.84 419.84s189.44 419.84 419.84 419.84 419.84-189.44 419.84-419.84c0-15.36 10.24-25.6 25.6-25.6s25.6 10.24 25.6 25.6c5.12 266.24-209.92 476.16-471.04 476.16z" fill="#666666" p-id="24488"></path><path d="M906.24 312.32h-174.08c-15.36 0-25.6-10.24-25.6-25.6s10.24-25.6 25.6-25.6h148.48v-153.6c0-15.36 10.24-25.6 25.6-25.6s25.6 10.24 25.6 25.6v179.2c0 15.36-10.24 25.6-25.6 25.6z" fill="#666666" p-id="24489"></path></svg>