<?xml version="1.0" standalone="no"?><!DOCTYPE svg PUBLIC "-//W3C//DTD SVG 1.1//EN" "http://www.w3.org/Graphics/SVG/1.1/DTD/svg11.dtd"><svg t="1543991366392" class="icon" style="" viewBox="0 0 1024 1024" version="1.1" xmlns="http://www.w3.org/2000/svg" p-id="24597" xmlns:xlink="http://www.w3.org/1999/xlink" width="200" height="200"><defs><style type="text/css"></style></defs><path d="M957.44 983.04H61.44c-15.36 0-25.6-10.24-25.6-25.6s10.24-25.6 25.6-25.6h896c15.36 0 25.6 10.24 25.6 25.6s-10.24 25.6-25.6 25.6zM506.88 819.2c-5.12 0-15.36-5.12-20.48-5.12L240.64 563.2c-10.24-10.24-10.24-25.6 0-35.84s25.6-10.24 35.84 0l225.28 225.28 225.28-225.28c10.24-10.24 25.6-10.24 35.84 0s10.24 25.6 0 35.84l-245.76 245.76c0 5.12-5.12 10.24-10.24 10.24z" fill="#666666" p-id="24598"></path><path d="M512 793.6c-15.36 0-25.6-10.24-25.6-25.6V61.44c0-15.36 10.24-25.6 25.6-25.6s25.6 10.24 25.6 25.6V768c0 15.36-10.24 25.6-25.6 25.6z" fill="#666666" p-id="24599"></path></svg>