<?xml version="1.0" standalone="no"?><!DOCTYPE svg PUBLIC "-//W3C//DTD SVG 1.1//EN" "http://www.w3.org/Graphics/SVG/1.1/DTD/svg11.dtd"><svg t="1543991345019" class="icon" style="" viewBox="0 0 1024 1024" version="1.1" xmlns="http://www.w3.org/2000/svg" p-id="24377" xmlns:xlink="http://www.w3.org/1999/xlink" width="200" height="200"><defs><style type="text/css"></style></defs><path d="M450.56 890.88C204.8 890.88 10.24 691.2 10.24 450.56 5.12 204.8 204.8 5.12 450.56 5.12s440.32 199.68 440.32 440.32c0 245.76-199.68 445.44-440.32 445.44z m0-834.56c-215.04 0-389.12 174.08-389.12 389.12s174.08 389.12 389.12 389.12c215.04 0 389.12-174.08 389.12-389.12S665.6 56.32 450.56 56.32z" fill="#666666" p-id="24378"></path><path d="M993.28 1018.88c-5.12 0-15.36 0-20.48-5.12L732.16 768c-10.24-10.24-10.24-25.6 0-35.84s25.6-10.24 35.84 0l245.76 245.76c10.24 10.24 10.24 25.6 0 35.84-10.24 0-15.36 5.12-20.48 5.12zM640 471.04H256c-15.36 0-25.6-10.24-25.6-20.48s10.24-30.72 25.6-30.72h384c15.36 0 25.6 10.24 25.6 25.6s-10.24 25.6-25.6 25.6z" fill="#666666" p-id="24379"></path></svg>