<?xml version="1.0" standalone="no"?><!DOCTYPE svg PUBLIC "-//W3C//DTD SVG 1.1//EN" "http://www.w3.org/Graphics/SVG/1.1/DTD/svg11.dtd"><svg t="1543981661166" class="icon" style="" viewBox="0 0 1024 1024" version="1.1" xmlns="http://www.w3.org/2000/svg" p-id="14587" xmlns:xlink="http://www.w3.org/1999/xlink" width="200" height="200"><defs><style type="text/css"></style></defs><path d="M511.937 961.707c-248.403 0-449.77-201.368-449.77-449.77s201.368-449.77 449.77-449.77 449.77 201.368 449.77 449.77-201.368 449.77-449.77 449.77zM455.008 769.645c0 12.717 10.312 23.028 23.028 23.028l67.325 0c12.723 0 23.028-10.312 23.028-23.028l0-67.33c0-12.723-10.305-23.028-23.028-23.028l-67.325 0c-12.717 0-23.028 10.312-23.028 23.028l0 67.33zM656.589 259.391c-37.668-27.166-84.906-42.492-141.818-42.492-43.313 0-79.823 11.328-109.502 30.411-43.644 27.712-68.332 74.381-74.139 137.552-0.461 5.009 3.07 15.41 19.116 15.41l75.353 0c10.811 0 14.056-10.659 14.893-15.719 2.344-14.291 8.011-30.95 17.007-45.242 12.184-19.341 32.844-23.742 62.001-23.742 29.612 0 50.042 2.587 61.203 18.266 11.194 15.743 16.77 33.143 16.77 52.223 0 16.602-8.32 31.793-18.351 45.624-5.521 8.057-12.818 15.449-21.825 22.247 0 0-59.19 37.966-85.204 68.466-12.852 15.073-15.742 55.367-17.131 86.901-0.208 4.813 2.035 14.651 14.595 14.651l77.259 0c9.597 0 13.702-9.367 14.117-13.959 0.826-9.119 2.052-29.864 3.694-35.009 4.785-15.079 17.721-28.257 32.31-39.575l30.039-20.729c27.11-21.133 48.761-38.467 58.301-52.067 16.305-22.381 27.768-49.913 27.762-82.561 0.002-53.315-18.855-93.518-56.451-120.656z" p-id="14588"></path></svg>