<?xml version="1.0" standalone="no"?><!DOCTYPE svg PUBLIC "-//W3C//DTD SVG 1.1//EN" "http://www.w3.org/Graphics/SVG/1.1/DTD/svg11.dtd"><svg t="1543981882546" class="icon" style="" viewBox="0 0 1024 1024" version="1.1" xmlns="http://www.w3.org/2000/svg" p-id="18706" xmlns:xlink="http://www.w3.org/1999/xlink" width="200" height="200"><defs><style type="text/css"></style></defs><path d="M512 1024c-281.6 0-512-230.4-512-512s230.4-512 512-512 512 230.4 512 512-230.4 512-512 512zM512 68.266667C264.533333 68.266667 68.266667 264.533333 68.266667 512s196.266667 443.733333 443.733333 443.733333 443.733333-196.266667 443.733333-443.733333S759.466667 68.266667 512 68.266667z" fill="#666666" p-id="18707"></path><path d="M759.466667 392.533333c0 42.666667-34.133333 68.266667-68.266667 68.266667s-76.8-25.6-76.8-68.266667 34.133333-68.266667 68.266667-68.266666c42.666667 0 76.8 34.133333 76.8 68.266666z m-358.4 0c0 42.666667-34.133333 68.266667-68.266667 68.266667s-68.266667-25.6-68.266667-68.266667 34.133333-68.266667 68.266667-68.266666 68.266667 34.133333 68.266667 68.266666zM512 793.6c-102.4 0-204.8-68.266667-221.866667-170.666667 0-25.6 17.066667-34.133333 34.133334-34.133333h366.933333c8.533333 0 42.666667 0 34.133333 42.666667C708.266667 725.333333 614.4 793.6 512 793.6z" fill="#666666" p-id="18708"></path></svg>