<?xml version="1.0" standalone="no"?><!DOCTYPE svg PUBLIC "-//W3C//DTD SVG 1.1//EN" "http://www.w3.org/Graphics/SVG/1.1/DTD/svg11.dtd"><svg t="1543981272076" class="icon" style="" viewBox="0 0 1105 1024" version="1.1" xmlns="http://www.w3.org/2000/svg" p-id="1872" xmlns:xlink="http://www.w3.org/1999/xlink" width="215.8203125" height="200"><defs><style type="text/css"></style></defs><path d="M358.970906 945.384648c-2.080729 0-4.251924-0.271399-6.332652-0.904665-62.33139-17.279094-119.868057-50.389817-166.458283-95.894446-4.885189-4.794722-7.41825-11.48924-7.056384-18.274225 0.361866-6.784984 3.709125-13.208103 9.137112-17.36956 29.763465-23.159413 37.995912-65.045383 19.178889-97.522842-18.90749-32.567925-59.25553-46.318827-94.085117-32.386992-6.332652 2.623527-13.569969 2.352128-19.631221-0.814198-6.061253-3.07586-10.584576-8.68478-12.212972-15.288831-7.961048-31.391861-11.941572-63.59792-11.941572-95.803979 0-32.115593 3.980524-64.321652 11.941572-95.803979 1.718863-6.604051 6.151719-12.212972 12.212972-15.379298 6.061253-3.166326 13.208103-3.437725 19.631221-0.814198 34.73912 14.112767 75.08716 0.271399 93.99465-32.296526 18.817023-32.386992 10.584576-74.363429-19.178889-97.522842-5.427987-4.251924-8.68478-10.584576-9.137112-17.36956-0.361866-6.784984 2.171195-13.479502 7.056384-18.274225 46.590226-45.504628 104.21736-78.705819 166.458283-95.894446 6.694518-1.718863 13.660435-0.633265 19.359822 3.07586 5.699387 3.799591 9.498978 9.770377 10.403643 16.555362 5.066122 37.181714 37.272181 65.226316 74.815761 65.226316 26.868538 0 65.13585-39.986175 75.08716-57.536667-0.723732-3.618658-0.542799-7.508716 0.542799-11.308307 3.799591-12.484371 17.007694-19.450289 29.401599-15.922097 0 0 0 0 0.090466 0l0 0 0 0c64.954917 19.359822 120.772722 51.656348 165.915484 95.713513 4.885189 4.794722 7.508716 11.48924 7.14685 18.274225-0.361866 6.784984-3.709125 13.117636-9.137112 17.36956-29.672998 23.159413-37.995912 65.045383-19.178889 97.522842 18.90749 32.567925 59.345997 46.49976 94.085117 32.296526 6.332652-2.623527 13.479502-2.352128 19.631221 0.814198 6.151719 3.07586 10.584576 8.68478 12.212972 15.379298 7.961048 31.482327 11.941572 63.688387 11.941572 95.713513s-4.070991 64.231185-11.941572 95.803979c-1.718863 6.604051-6.151719 12.212972-12.212972 15.288831-6.151719 3.166326-13.208103 3.437725-19.631221 0.814198-34.73912-14.022301-75.177627-0.180933-94.085117 32.386992-18.817023 32.386992-10.584576 74.363429 19.178889 97.522842 5.427987 4.161457 8.68478 10.494109 9.137112 17.36956s-2.171195 13.479502-7.14685 18.274225c-46.49976 45.414162-104.036427 78.615352-166.458283 95.894446-6.604051 1.809329-13.660435 0.723732-19.269356-3.07586-5.699387-3.799591-9.498978-9.860844-10.494109-16.555362-5.066122-37.181714-37.181714-65.226316-74.815761-65.226316-37.54358 0-69.749639 28.044602-74.815761 65.226316-0.904665 6.784984-4.704256 12.755771-10.403643 16.555362C368.108019 944.118117 363.584696 945.384648 358.970906 945.384648zM237.203053 831.035045c31.210928 26.325739 66.945179 46.952092 105.212491 60.612527 17.731426-46.680692 63.145588-79.339084 114.892402-79.339084 51.746814 0 97.160976 32.658391 114.892402 79.339084 38.357778-13.660435 74.001563-34.286788 105.212491-60.612527-31.572794-38.900577-37.181714-94.537449-11.217841-139.318346 25.873407-44.69043 76.896489-67.397511 126.110243-59.888795 3.618658-20.083554 5.337521-40.438507 5.337521-60.612527 0-20.17402-1.809329-40.438507-5.337521-60.612527-49.03282 7.961048-100.146369-15.198365-126.110243-59.888795-25.963874-44.69043-20.354953-100.327302 11.217841-139.227879-30.487196-25.692474-65.950048-45.956961-105.75529-60.522061-20.17402 33.110724-68.935441 79.158151-114.349603 79.158151-51.656348 0-97.07051-32.658391-114.892402-79.339084-38.267312 13.569969-74.001563 34.196321-105.212491 60.702993 31.572794 38.900577 37.181714 94.537449 11.217841 139.227879-25.963874 44.69043-76.62509 67.668911-126.019776 59.888795-3.618658 20.083554-5.427987 40.34804-5.427987 60.612527 0 20.264487 1.809329 40.528973 5.427987 60.612527 49.123287-7.780115 100.146369 15.198365 126.110243 59.979262C274.294301 736.407129 268.775847 792.134468 237.203053 831.035045z" p-id="1873"></path><path d="M457.21748 694.24976c-67.759377 0-122.943917-55.18454-122.943917-123.034383s55.18454-122.943917 122.943917-122.943917c67.759377 0 122.943917 55.18454 122.943917 122.943917S524.976857 694.24976 457.21748 694.24976zM457.21748 495.675884c-41.705037 0-75.629959 33.924922-75.629959 75.629959s33.924922 75.629959 75.629959 75.629959c41.705037 0 75.539493-33.924922 75.539493-75.629959S498.922517 495.675884 457.21748 495.675884z" p-id="1874"></path></svg>