<?xml version="1.0" standalone="no"?><!DOCTYPE svg PUBLIC "-//W3C//DTD SVG 1.1//EN" "http://www.w3.org/Graphics/SVG/1.1/DTD/svg11.dtd"><svg t="1543981631215" class="icon" style="" viewBox="0 0 1024 1024" version="1.1" xmlns="http://www.w3.org/2000/svg" p-id="13774" xmlns:xlink="http://www.w3.org/1999/xlink" width="200" height="200"><defs><style type="text/css"></style></defs><path d="M512 880.64c-209.92 0-384-174.08-384-384 0-122.88 61.44-240.64 163.84-312.32 10.24-10.24 25.6-5.12 35.84 5.12 10.24 10.24 5.12 25.6-5.12 35.84-92.16 61.44-143.36 163.84-143.36 271.36 0 184.32 148.48 332.8 332.8 332.8s332.8-148.48 332.8-332.8c0-107.52-51.2-209.92-143.36-271.36-10.24-10.24-15.36-25.6-5.12-35.84 10.24-10.24 25.6-15.36 35.84-5.12 102.4 71.68 163.84 189.44 163.84 312.32 0 215.04-174.08 384-384 384z" fill="#666666" p-id="13775"></path><path d="M512 384c-15.36 0-25.6-15.36-25.6-25.6V102.4c0-15.36 10.24-25.6 25.6-25.6s25.6 10.24 25.6 25.6v256c0 10.24-10.24 25.6-25.6 25.6z" fill="#666666" p-id="13776"></path></svg>