<?xml version="1.0" standalone="no"?><!DOCTYPE svg PUBLIC "-//W3C//DTD SVG 1.1//EN" "http://www.w3.org/Graphics/SVG/1.1/DTD/svg11.dtd"><svg t="1543992730429" class="icon" style="" viewBox="0 0 1024 1024" version="1.1" xmlns="http://www.w3.org/2000/svg" p-id="25143" xmlns:xlink="http://www.w3.org/1999/xlink" width="200" height="200"><defs><style type="text/css"></style></defs><path d="M512 512m-512 0a512 512 0 1 0 1024 0 512 512 0 1 0-1024 0Z" fill="#CCCCCC" p-id="25144"></path><path d="M476.16 716.8V430.08h-20.48c-15.36 0-25.6-10.24-25.6-25.6s10.24-25.6 25.6-25.6h66.56c15.36 5.12 25.6 20.48 25.6 35.84V716.8h35.84c15.36 0 25.6 10.24 25.6 25.6s-5.12 25.6-20.48 25.6h-153.6c-15.36 0-25.6-10.24-25.6-25.6s10.24-25.6 25.6-25.6h40.96z m35.84-496.64c30.72 0 51.2 20.48 51.2 51.2s-20.48 51.2-51.2 51.2-51.2-20.48-51.2-51.2 20.48-51.2 51.2-51.2z" fill="#FFFFFF" p-id="25145"></path></svg>