<?xml version="1.0" standalone="no"?><!DOCTYPE svg PUBLIC "-//W3C//DTD SVG 1.1//EN" "http://www.w3.org/Graphics/SVG/1.1/DTD/svg11.dtd"><svg t="1543999195704" class="icon" style="" viewBox="0 0 1024 1024" version="1.1" xmlns="http://www.w3.org/2000/svg" p-id="25253" xmlns:xlink="http://www.w3.org/1999/xlink" width="200" height="200"><defs><style type="text/css"></style></defs><path d="M819.2 819.2H204.8c-15.36 0-25.6-10.24-25.6-25.6v-153.6c0-15.36 10.24-25.6 25.6-25.6s25.6 10.24 25.6 25.6V768h563.2v-128c0-15.36 10.24-25.6 25.6-25.6s25.6 10.24 25.6 25.6v153.6c0 15.36-10.24 25.6-25.6 25.6z" fill="#666666" p-id="25254"></path><path d="M512 716.8c-15.36 0-25.6-10.24-25.6-25.6V204.8c0-15.36 10.24-25.6 25.6-25.6s25.6 10.24 25.6 25.6v486.4c0 15.36-10.24 25.6-25.6 25.6z" fill="#666666" p-id="25255"></path><path d="M384 332.8c-5.12 0-15.36 0-20.48-5.12-5.12-10.24-5.12-25.6 5.12-35.84l128-128c0-5.12 10.24-10.24 15.36-10.24 5.12 0 15.36 5.12 20.48 5.12l128 128c5.12 15.36 5.12 30.72-5.12 40.96s-25.6 10.24-35.84 0L512 215.04 404.48 327.68c-5.12 5.12-15.36 5.12-20.48 5.12z" fill="#666666" p-id="25256"></path></svg>