<?xml version="1.0" standalone="no"?><!DOCTYPE svg PUBLIC "-//W3C//DTD SVG 1.1//EN" "http://www.w3.org/Graphics/SVG/1.1/DTD/svg11.dtd"><svg t="1543981416125" class="icon" style="" viewBox="0 0 1024 1024" version="1.1" xmlns="http://www.w3.org/2000/svg" p-id="12898" xmlns:xlink="http://www.w3.org/1999/xlink" width="200" height="200"><defs><style type="text/css"></style></defs><path d="M648.533333 119.466667c34.133333 34.133333 51.2 85.333333 51.2 136.533333S682.666667 358.4 648.533333 392.533333c-34.133333 34.133333-85.333333 59.733333-136.533333 59.733334S409.6 426.666667 375.466667 392.533333c-34.133333-34.133333-59.733333-85.333333-59.733334-136.533333s25.6-102.4 59.733334-136.533333C409.6 85.333333 460.8 59.733333 512 59.733333s102.4 25.6 136.533333 59.733334zM256 256c0 145.066667 110.933333 256 256 256s256-110.933333 256-256-119.466667-256-256-256-256 110.933333-256 256zM972.8 1024c-17.066667 0-25.6-8.533333-34.133333-25.6-17.066667-221.866667-204.8-392.533333-426.666667-392.533333s-409.6 170.666667-435.2 384c0 17.066667-17.066667 25.6-34.133333 25.6s-25.6-17.066667-25.6-34.133334c17.066667-110.933333 68.266667-230.4 162.133333-307.2 93.866667-85.333333 213.333333-128 332.8-128s238.933333 42.666667 332.8 128 145.066667 196.266667 162.133333 315.733334c0 17.066667-8.533333 34.133333-34.133333 34.133333 8.533333 0 8.533333 0 0 0z" fill="#666666" p-id="12899"></path></svg>