<?xml version="1.0" standalone="no"?><!DOCTYPE svg PUBLIC "-//W3C//DTD SVG 1.1//EN" "http://www.w3.org/Graphics/SVG/1.1/DTD/svg11.dtd"><svg t="1543981167724" class="icon" style="" viewBox="0 0 1024 1024" version="1.1" xmlns="http://www.w3.org/2000/svg" p-id="5037" xmlns:xlink="http://www.w3.org/1999/xlink" width="200" height="200"><defs><style type="text/css"></style></defs><path d="M725.333333 574.506667l170.666667 113.770666V335.722667l-170.666667 113.770666v125.013334z m0-227.562667l189.653334-126.442667C943.36 201.6 981.333333 221.930667 981.333333 256v512c0 34.069333-37.973333 54.4-66.346666 35.498667L725.333333 677.056v48.106667C725.333333 784.085333 677.504 832 618.752 832H149.248A106.666667 106.666667 0 0 1 42.666667 725.162667V298.837333C42.666667 239.914667 90.496 192 149.248 192h469.504A106.666667 106.666667 0 0 1 725.333333 298.837333v48.106667zM128 298.837333v426.325334A21.333333 21.333333 0 0 0 149.248 746.666667h469.504c11.584 0 21.248-9.685333 21.248-21.504V298.837333A21.333333 21.333333 0 0 0 618.752 277.333333H149.248C137.664 277.333333 128 287.018667 128 298.837333z" p-id="5038"></path></svg>